<svg width="346" height="129" viewBox="0 0 346 129" fill="none" xmlns="http://www.w3.org/2000/svg">
<path d="M300.344 92.0142C295.968 92.0142 292.422 88.7858 292.422 84.8026V7.21163C292.422 3.22841 295.968 0 300.344 0C304.719 0 308.265 3.22841 308.265 7.21163V84.8026C308.265 88.7858 304.719 92.0142 300.344 92.0142Z" fill="url(#paint0_linear_41_3217)"/>
<path d="M277.637 44.1975C277.637 40.2143 281.184 36.9858 285.559 36.9858H315.128C319.504 36.9858 323.05 40.2143 323.05 44.1975C323.05 48.1807 319.504 51.4091 315.128 51.4091H285.559C281.184 51.4091 277.637 48.1807 277.637 44.1975Z" fill="url(#paint1_linear_41_3217)"/>
<path d="M147.163 36.9766C130.471 36.9766 116.935 49.2991 116.935 64.4953C116.935 79.6916 130.471 92.0141 147.163 92.0141C163.856 92.0141 177.392 79.6916 177.392 64.4953C177.392 49.2991 163.856 36.9766 147.163 36.9766ZM147.163 77.4726C139.291 77.4726 132.908 71.6615 132.908 64.4953C132.908 57.3292 139.291 51.518 147.163 51.518C155.035 51.518 161.418 57.3292 161.418 64.4953C161.418 71.6615 155.035 77.4726 147.163 77.4726Z" fill="url(#paint2_linear_41_3217)"/>
<path d="M262.623 92.0143C258.247 92.0143 254.701 88.7859 254.701 84.8027V44.1975C254.701 40.2143 258.247 36.9858 262.623 36.9858C266.998 36.9858 270.545 40.2143 270.545 44.1975V84.8027C270.545 88.7859 266.998 92.0143 262.623 92.0143Z" fill="url(#paint3_linear_41_3217)"/>
<path d="M270.317 24.6684C271.322 20.792 268.685 16.908 264.426 15.993C260.168 15.0781 255.902 17.4789 254.897 21.3552C253.892 25.2316 256.529 29.1157 260.787 30.0306C265.045 30.9455 269.312 28.5448 270.317 24.6684Z" fill="url(#paint4_linear_41_3217)"/>
<path d="M338.074 36.9766H338.064C333.689 36.9766 330.143 40.2053 330.143 44.1882V84.8025C330.143 88.7854 333.689 92.0141 338.064 92.0141H338.074C342.449 92.0141 345.996 88.7854 345.996 84.8025V44.1882C345.996 40.2053 342.449 36.9766 338.074 36.9766Z" fill="url(#paint5_linear_41_3217)"/>
<path d="M345.996 23.0173C345.996 27.0005 342.45 30.2289 338.074 30.2289C333.699 30.2289 330.152 27.0005 330.152 23.0173C330.152 19.0341 333.699 15.8057 338.074 15.8057C342.45 15.8057 345.996 19.0341 345.996 23.0173Z" fill="url(#paint6_linear_41_3217)"/>
<path d="M60.4555 7.21163C60.4555 3.22841 56.9092 0 52.5337 0C48.1583 0 44.612 3.22841 44.612 7.21163V63.4314C44.612 63.4314 44.6519 64.1408 44.6519 64.4955C44.6519 70.7704 39.5972 76.0086 33.094 77.209C32.1749 77.3818 31.2159 77.4728 30.2369 77.4728C21.9556 77.4728 15.3225 71.0341 16.0417 63.3587C16.5612 57.8386 21.0265 53.1551 26.9404 51.8819C27.5497 51.7546 28.1591 51.6546 28.7485 51.6C32.5545 51.2272 35.6113 48.608 35.911 45.1341V45.0613C36.3206 40.5143 32.125 36.6675 27.1402 37.1313C27.0403 37.1313 26.9504 37.1495 26.8505 37.1586C12.1757 38.6409 0.65771 49.863 0.028365 63.295C-0.710866 79.046 13.0948 92.0234 30.2269 92.0234C30.7464 92.0234 31.2659 92.0143 31.7853 91.987C36.7901 91.7596 41.4752 90.4137 45.551 88.2311C54.4717 83.4476 60.4555 74.6172 60.4555 64.5137V7.21163Z" fill="url(#paint7_linear_41_3217)"/>
<path d="M186.172 121.788C186.172 125.771 189.719 129 194.094 129C198.47 129 202.016 125.771 202.016 121.788V65.5685C202.016 65.5685 201.976 64.8591 201.976 64.5044C201.976 58.2295 207.031 52.9913 213.534 51.7909C214.453 51.6181 215.412 51.5271 216.391 51.5271C224.672 51.5271 231.305 57.9658 230.586 65.6412C230.067 71.1613 225.601 75.8448 219.688 77.118C219.078 77.2453 218.469 77.3453 217.879 77.3999C214.073 77.7728 211.017 80.3919 210.717 83.8658V83.9386C210.307 88.4856 214.503 92.3324 219.488 91.8686C219.588 91.8686 219.678 91.8504 219.777 91.8414C234.452 90.3499 245.97 79.1278 246.6 65.7049C247.339 49.9539 233.533 36.9766 216.401 36.9766C215.881 36.9766 215.362 36.9857 214.843 37.0129C209.838 37.2403 205.153 38.5862 201.077 40.7688C192.156 45.5523 186.172 54.3827 186.172 64.4863V121.788Z" fill="url(#paint8_linear_41_3217)"/>
<path d="M111.32 53.7099C115.666 50.5724 115.466 44.4521 110.861 41.6329C106.056 38.6955 100.282 36.9858 94.0581 36.9858C90.9313 36.9858 87.9444 37.4951 85.0874 38.2226C76.4863 40.4143 69.2339 49.3447 69.2339 57.1475V84.5572C69.2339 88.404 72.4206 91.7597 76.6362 92.0052C81.2514 92.278 85.0874 88.9496 85.0874 84.8027V60.6487C85.0874 53.2916 92.0701 51.5273 95.4766 51.5273C98.3436 51.5273 100.691 52.3003 102.599 53.6281C105.196 55.4378 108.763 55.5742 111.33 53.719L111.32 53.7099Z" fill="url(#paint9_linear_41_3217)"/>
<defs>
<linearGradient id="paint0_linear_41_3217" x1="5.75062" y1="11.8794" x2="343.602" y2="70.4187" gradientUnits="userSpaceOnUse">
<stop stop-color="#CC1DC9"/>
<stop offset="0.5" stop-color="#8C2CB1"/>
<stop offset="1" stop-color="#642F99"/>
</linearGradient>
<linearGradient id="paint1_linear_41_3217" x1="5.75062" y1="11.8794" x2="343.602" y2="70.4187" gradientUnits="userSpaceOnUse">
<stop stop-color="#CC1DC9"/>
<stop offset="0.5" stop-color="#8C2CB1"/>
<stop offset="1" stop-color="#642F99"/>
</linearGradient>
<linearGradient id="paint2_linear_41_3217" x1="5.75062" y1="11.8794" x2="343.602" y2="70.4187" gradientUnits="userSpaceOnUse">
<stop stop-color="#CC1DC9"/>
<stop offset="0.5" stop-color="#8C2CB1"/>
<stop offset="1" stop-color="#642F99"/>
</linearGradient>
<linearGradient id="paint3_linear_41_3217" x1="5.75062" y1="11.8794" x2="343.602" y2="70.4187" gradientUnits="userSpaceOnUse">
<stop stop-color="#CC1DC9"/>
<stop offset="0.5" stop-color="#8C2CB1"/>
<stop offset="1" stop-color="#642F99"/>
</linearGradient>
<linearGradient id="paint4_linear_41_3217" x1="5.75062" y1="11.8794" x2="343.602" y2="70.4187" gradientUnits="userSpaceOnUse">
<stop stop-color="#CC1DC9"/>
<stop offset="0.5" stop-color="#8C2CB1"/>
<stop offset="1" stop-color="#642F99"/>
</linearGradient>
<linearGradient id="paint5_linear_41_3217" x1="5.75062" y1="11.8794" x2="343.602" y2="70.4187" gradientUnits="userSpaceOnUse">
<stop stop-color="#CC1DC9"/>
<stop offset="0.5" stop-color="#8C2CB1"/>
<stop offset="1" stop-color="#642F99"/>
</linearGradient>
<linearGradient id="paint6_linear_41_3217" x1="5.75062" y1="11.8794" x2="343.602" y2="70.4187" gradientUnits="userSpaceOnUse">
<stop stop-color="#CC1DC9"/>
<stop offset="0.5" stop-color="#8C2CB1"/>
<stop offset="1" stop-color="#642F99"/>
</linearGradient>
<linearGradient id="paint7_linear_41_3217" x1="5.75062" y1="11.8794" x2="343.602" y2="70.4187" gradientUnits="userSpaceOnUse">
<stop stop-color="#CC1DC9"/>
<stop offset="0.5" stop-color="#8C2CB1"/>
<stop offset="1" stop-color="#642F99"/>
</linearGradient>
<linearGradient id="paint8_linear_41_3217" x1="5.75062" y1="11.8794" x2="343.602" y2="70.4187" gradientUnits="userSpaceOnUse">
<stop stop-color="#CC1DC9"/>
<stop offset="0.5" stop-color="#8C2CB1"/>
<stop offset="1" stop-color="#642F99"/>
</linearGradient>
<linearGradient id="paint9_linear_41_3217" x1="5.75062" y1="11.8794" x2="343.602" y2="70.4187" gradientUnits="userSpaceOnUse">
<stop stop-color="#CC1DC9"/>
<stop offset="0.5" stop-color="#8C2CB1"/>
<stop offset="1" stop-color="#642F99"/>
</linearGradient>
</defs>
</svg>
