<svg width="122" height="47" viewBox="0 0 122 47" fill="none" xmlns="http://www.w3.org/2000/svg">
<path d="M105.534 33.1446C104.004 33.1446 102.764 31.9934 102.764 30.573V2.9049C102.764 1.48453 104.004 0.333313 105.534 0.333313C107.064 0.333313 108.304 1.48453 108.304 2.9049V30.573C108.304 31.9934 107.064 33.1446 105.534 33.1446Z" fill="white"/>
<path d="M97.5933 16.0936C97.5933 14.6732 98.8334 13.522 100.364 13.522H110.704C112.234 13.522 113.475 14.6732 113.475 16.0936C113.475 17.514 112.234 18.6652 110.704 18.6652H100.364C98.8334 18.6652 97.5933 17.514 97.5933 16.0936Z" fill="white"/>
<path d="M51.9651 13.5188C46.1275 13.5188 41.3938 17.9129 41.3938 23.3317C41.3938 28.7505 46.1275 33.1446 51.9651 33.1446C57.8027 33.1446 62.5363 28.7505 62.5363 23.3317C62.5363 17.9129 57.8027 13.5188 51.9651 13.5188ZM51.9651 27.9593C49.2122 27.9593 46.9799 25.8871 46.9799 23.3317C46.9799 20.7763 49.2122 18.7041 51.9651 18.7041C54.7179 18.7041 56.9502 20.7763 56.9502 23.3317C56.9502 25.8871 54.7179 27.9593 51.9651 27.9593Z" fill="white"/>
<path d="M92.3426 33.1446C90.8124 33.1446 89.5723 31.9934 89.5723 30.573V16.0936C89.5723 14.6732 90.8124 13.522 92.3426 13.522C93.8727 13.522 95.1129 14.6732 95.1129 16.0936V30.573C95.1129 31.9934 93.8727 33.1446 92.3426 33.1446Z" fill="white"/>
<path d="M95.0333 9.12982C95.3847 7.74755 94.4625 6.36253 92.9734 6.03628C91.4843 5.71004 89.9922 6.56611 89.6408 7.94838C89.2893 9.33065 90.2115 10.7157 91.7006 11.0419C93.1897 11.3682 94.6818 10.5121 95.0333 9.12982Z" fill="white"/>
<path d="M118.729 13.5188H118.725C117.195 13.5188 115.955 14.6701 115.955 16.0904V30.573C115.955 31.9933 117.195 33.1446 118.725 33.1446H118.729C120.259 33.1446 121.499 31.9933 121.499 30.573V16.0904C121.499 14.6701 120.259 13.5188 118.729 13.5188Z" fill="white"/>
<path d="M121.499 8.54101C121.499 9.96138 120.259 11.1126 118.729 11.1126C117.199 11.1126 115.958 9.96138 115.958 8.54101C115.958 7.12064 117.199 5.96942 118.729 5.96942C120.259 5.96942 121.499 7.12064 121.499 8.54101V8.54101Z" fill="white"/>
<path d="M21.6419 23.3317V2.9049C21.6419 1.48453 20.4018 0.333313 18.8716 0.333313C17.3415 0.333313 16.1013 1.48453 16.1013 2.9049V22.9523C16.1013 22.9523 16.1153 23.2052 16.1153 23.3317C16.1153 25.5693 14.3476 27.4372 12.0733 27.8652C11.7519 27.9268 11.4165 27.9593 11.0742 27.9593C8.1781 27.9593 5.85843 25.6633 6.10996 22.9263C6.29162 20.9579 7.8532 19.2878 9.92134 18.8338C10.1344 18.7884 10.3475 18.7528 10.5537 18.7333C11.8847 18.6004 12.9537 17.6664 13.0585 16.4276V16.4017C13.2017 14.7803 11.7345 13.4085 9.99121 13.5739C9.95628 13.5739 9.92483 13.5804 9.8899 13.5836C4.75798 14.1122 0.730008 18.1139 0.50992 22.9036C0.251402 28.5203 5.07938 33.1478 11.0707 33.1478C11.2524 33.1478 11.434 33.1446 11.6157 33.1349C13.3659 33.0538 15.0043 32.5738 16.4297 31.7956C19.5494 30.0898 21.6419 26.941 21.6419 23.3382V23.3317Z" fill="white"/>
<path d="M65.6071 23.3349V43.7617C65.6071 45.1821 66.8472 46.3333 68.3774 46.3333C69.9075 46.3333 71.1477 45.1821 71.1477 43.7617V23.7144C71.1477 23.7144 71.1337 23.4614 71.1337 23.3349C71.1337 21.0974 72.9014 19.2295 75.1757 18.8014C75.4971 18.7398 75.8325 18.7074 76.1748 18.7074C79.0709 18.7074 81.3906 21.0033 81.1391 23.7403C80.9574 25.7087 79.3958 27.3788 77.3277 27.8328C77.1146 27.8782 76.9015 27.9139 76.6953 27.9333C75.3643 28.0663 74.2953 29.0002 74.1905 30.239V30.2649C74.0473 31.8864 75.5146 33.2581 77.2578 33.0927C77.2927 33.0927 77.3242 33.0862 77.3591 33.083C82.491 32.5512 86.519 28.5495 86.7391 23.763C86.9976 18.1464 82.1696 13.5188 76.1783 13.5188C75.9967 13.5188 75.815 13.522 75.6333 13.5318C73.8831 13.6128 72.2447 14.0928 70.8193 14.8711C67.6996 16.5768 65.6071 19.7256 65.6071 23.3285V23.3349Z" fill="white"/>
<path d="M39.4304 19.4857C40.9501 18.3669 40.8802 16.1844 39.2697 15.1791C37.5894 14.1317 35.5701 13.522 33.3937 13.522C32.3002 13.522 31.2557 13.7036 30.2565 13.9631C27.2487 14.7446 24.7124 17.9291 24.7124 20.7115V30.4854C24.7124 31.8572 25.8268 33.0538 27.3011 33.1414C28.9151 33.2386 30.2565 32.0517 30.2565 30.573V21.96C30.2565 19.3365 32.6985 18.7074 33.8898 18.7074C34.8924 18.7074 35.7134 18.983 36.3806 19.4565C37.2889 20.1018 38.5361 20.1504 39.4339 19.4889L39.4304 19.4857Z" fill="white"/>
</svg>
