<svg width="44" height="44" viewBox="0 0 44 44" fill="none" xmlns="http://www.w3.org/2000/svg">
<rect width="44" height="44" rx="8" fill="black"/>
<path d="M21.7227 16.3846C22.5547 16.3846 23.5977 15.8048 24.2188 15.0318C24.7812 14.3312 25.1914 13.3528 25.1914 12.3744C25.1914 12.2416 25.1797 12.1087 25.1562 12C24.2305 12.0362 23.1172 12.6402 22.4492 13.4495C21.9219 14.0655 21.4414 15.0318 21.4414 16.0223C21.4414 16.1672 21.4648 16.3121 21.4766 16.3605C21.5352 16.3725 21.6289 16.3846 21.7227 16.3846ZM18.793 31C19.9297 31 20.4336 30.2149 21.8516 30.2149C23.293 30.2149 23.6094 30.9758 24.875 30.9758C26.1172 30.9758 26.9492 29.7921 27.7344 28.6325C28.6133 27.3039 28.9766 25.9994 29 25.939C28.918 25.9148 26.5391 24.9123 26.5391 22.0979C26.5391 19.658 28.4141 18.5588 28.5195 18.4743C27.2773 16.6383 25.3906 16.59 24.875 16.59C23.4805 16.59 22.3438 17.4596 21.6289 17.4596C20.8555 17.4596 19.8359 16.6383 18.6289 16.6383C16.332 16.6383 14 18.595 14 22.2912C14 24.5861 14.8672 27.014 15.9336 28.5842C16.8477 29.9129 17.6445 31 18.793 31Z" fill="white"/>
</svg>
